<svg xmlns="http://www.w3.org/2000/svg" xmlns:xlink="http://www.w3.org/1999/xlink" width="200" zoomAndPan="magnify" viewBox="0 0 150 74.999997" height="100" preserveAspectRatio="xMidYMid meet" version="1.0"><defs><g/><clipPath id="aa571b7f95"><path d="M 6 26 L 26 26 L 26 47 L 6 47 Z M 6 26 " clip-rule="nonzero"/></clipPath><clipPath id="2b6e62da7f"><path d="M 27.019531 36.222656 L 16.414062 46.828125 L 5.808594 36.222656 L 16.414062 25.613281 Z M 27.019531 36.222656 " clip-rule="nonzero"/></clipPath><clipPath id="feabd11d7a"><path d="M 27.019531 36.222656 L 16.414062 46.828125 L 5.808594 36.222656 L 16.414062 25.613281 Z M 27.019531 36.222656 " clip-rule="nonzero"/></clipPath><clipPath id="e2a73cdd07"><rect x="0" width="121" y="0" height="22"/></clipPath></defs><g clip-path="url(#aa571b7f95)"><g clip-path="url(#2b6e62da7f)"><g clip-path="url(#feabd11d7a)"><path fill="#ffffff" d="M 22.933594 36.007812 L 22.929688 35.765625 L 22.929688 35.742188 C 22.945312 34.96875 23.582031 34.339844 24.355469 34.339844 C 25.132812 34.339844 25.769531 34.96875 25.78125 35.742188 L 25.78125 35.765625 L 25.785156 36.007812 L 25.78125 36.671875 C 25.78125 37.457031 25.140625 38.097656 24.355469 38.097656 C 23.574219 38.097656 22.929688 37.457031 22.929688 36.671875 Z M 10.695312 34.800781 L 7.703125 34.800781 C 6.921875 34.800781 6.28125 35.441406 6.277344 36.226562 C 6.28125 37.007812 6.921875 37.648438 7.703125 37.648438 L 12.121094 37.648438 C 12.90625 37.648438 13.546875 37.007812 13.546875 36.226562 L 13.546875 31.789062 C 13.546875 31.007812 12.90625 30.367188 12.121094 30.363281 C 11.335938 30.363281 10.695312 31.007812 10.695312 31.789062 Z M 16.207031 46.132812 L 16.207031 46.136719 C 15.421875 46.136719 14.78125 45.492188 14.78125 44.710938 L 14.78125 27.742188 C 14.78125 26.957031 15.421875 26.3125 16.207031 26.316406 C 16.992188 26.316406 17.632812 26.957031 17.632812 27.742188 L 17.632812 44.710938 C 17.632812 45.492188 16.992188 46.132812 16.207031 46.132812 Z M 20.28125 42.085938 C 19.5 42.085938 18.855469 41.445312 18.855469 40.660156 L 18.855469 31.789062 C 18.855469 31.007812 19.5 30.363281 20.28125 30.363281 C 21.066406 30.367188 21.707031 31.007812 21.707031 31.789062 L 21.707031 40.660156 C 21.707031 41.441406 21.0625 42.085938 20.28125 42.085938 Z M 20.28125 42.085938 " fill-opacity="1" fill-rule="evenodd"/></g></g></g><g transform="matrix(1, 0, 0, 1, 28, 25)"><g clip-path="url(#e2a73cdd07)"><g fill="#ffffff" fill-opacity="1"><g transform="translate(0.254486, 16.350136)"><g><path d="M 1.15625 0 L 1.15625 -10.875 L 4.96875 -10.875 C 5.738281 -10.875 6.375 -10.753906 6.875 -10.515625 C 7.382812 -10.273438 7.757812 -9.941406 8 -9.515625 C 8.25 -9.097656 8.375 -8.628906 8.375 -8.109375 C 8.375 -7.410156 8.1875 -6.859375 7.8125 -6.453125 C 7.4375 -6.046875 6.984375 -5.765625 6.453125 -5.609375 C 6.859375 -5.535156 7.222656 -5.375 7.546875 -5.125 C 7.878906 -4.875 8.140625 -4.5625 8.328125 -4.1875 C 8.523438 -3.820312 8.625 -3.414062 8.625 -2.96875 C 8.625 -2.414062 8.488281 -1.914062 8.21875 -1.46875 C 7.945312 -1.019531 7.546875 -0.660156 7.015625 -0.390625 C 6.492188 -0.128906 5.851562 0 5.09375 0 Z M 2.453125 -6.125 L 4.875 -6.125 C 5.570312 -6.125 6.109375 -6.285156 6.484375 -6.609375 C 6.859375 -6.941406 7.046875 -7.394531 7.046875 -7.96875 C 7.046875 -8.519531 6.859375 -8.960938 6.484375 -9.296875 C 6.117188 -9.628906 5.566406 -9.796875 4.828125 -9.796875 L 2.453125 -9.796875 Z M 2.453125 -1.09375 L 4.953125 -1.09375 C 5.703125 -1.09375 6.28125 -1.265625 6.6875 -1.609375 C 7.09375 -1.953125 7.296875 -2.4375 7.296875 -3.0625 C 7.296875 -3.675781 7.082031 -4.164062 6.65625 -4.53125 C 6.226562 -4.894531 5.648438 -5.078125 4.921875 -5.078125 L 2.453125 -5.078125 Z M 2.453125 -1.09375 "/></g></g></g><g fill="#ffffff" fill-opacity="1"><g transform="translate(12.024446, 16.350136)"><g><path d="M 6.09375 0.1875 C 5.03125 0.1875 4.09375 -0.046875 3.28125 -0.515625 C 2.476562 -0.992188 1.851562 -1.65625 1.40625 -2.5 C 0.957031 -3.351562 0.734375 -4.332031 0.734375 -5.4375 C 0.734375 -6.550781 0.957031 -7.53125 1.40625 -8.375 C 1.851562 -9.21875 2.476562 -9.875 3.28125 -10.34375 C 4.09375 -10.820312 5.03125 -11.0625 6.09375 -11.0625 C 7.175781 -11.0625 8.117188 -10.820312 8.921875 -10.34375 C 9.722656 -9.875 10.34375 -9.21875 10.78125 -8.375 C 11.226562 -7.53125 11.453125 -6.550781 11.453125 -5.4375 C 11.453125 -4.332031 11.226562 -3.351562 10.78125 -2.5 C 10.34375 -1.65625 9.722656 -0.992188 8.921875 -0.515625 C 8.117188 -0.046875 7.175781 0.1875 6.09375 0.1875 Z M 6.09375 -0.96875 C 6.894531 -0.96875 7.597656 -1.144531 8.203125 -1.5 C 8.804688 -1.851562 9.273438 -2.363281 9.609375 -3.03125 C 9.953125 -3.707031 10.125 -4.507812 10.125 -5.4375 C 10.125 -6.375 9.953125 -7.171875 9.609375 -7.828125 C 9.273438 -8.492188 8.804688 -9.003906 8.203125 -9.359375 C 7.597656 -9.722656 6.894531 -9.90625 6.09375 -9.90625 C 5.289062 -9.90625 4.585938 -9.722656 3.984375 -9.359375 C 3.378906 -9.003906 2.90625 -8.492188 2.5625 -7.828125 C 2.226562 -7.171875 2.0625 -6.375 2.0625 -5.4375 C 2.0625 -4.507812 2.226562 -3.707031 2.5625 -3.03125 C 2.90625 -2.363281 3.378906 -1.851562 3.984375 -1.5 C 4.585938 -1.144531 5.289062 -0.96875 6.09375 -0.96875 Z M 6.09375 -0.96875 "/></g></g></g><g fill="#ffffff" fill-opacity="1"><g transform="translate(26.623899, 16.350136)"><g><path d="M 0.46875 0 L 4.484375 -10.875 L 5.859375 -10.875 L 9.859375 0 L 8.46875 0 L 7.484375 -2.796875 L 2.84375 -2.796875 L 1.828125 0 Z M 3.234375 -3.859375 L 7.09375 -3.859375 L 5.15625 -9.234375 Z M 3.234375 -3.859375 "/></g></g></g><g fill="#ffffff" fill-opacity="1"><g transform="translate(39.357751, 16.350136)"><g><path d="M 1.15625 0 L 1.15625 -10.875 L 4.65625 -10.875 C 5.507812 -10.875 6.207031 -10.734375 6.75 -10.453125 C 7.289062 -10.179688 7.6875 -9.800781 7.9375 -9.3125 C 8.195312 -8.820312 8.328125 -8.285156 8.328125 -7.703125 C 8.328125 -7.015625 8.144531 -6.394531 7.78125 -5.84375 C 7.414062 -5.289062 6.84375 -4.898438 6.0625 -4.671875 L 8.4375 0 L 6.90625 0 L 4.6875 -4.5 L 2.453125 -4.5 L 2.453125 0 Z M 2.453125 -5.515625 L 4.578125 -5.515625 C 5.410156 -5.515625 6.019531 -5.71875 6.40625 -6.125 C 6.789062 -6.53125 6.984375 -7.050781 6.984375 -7.6875 C 6.984375 -8.320312 6.789062 -8.828125 6.40625 -9.203125 C 6.03125 -9.585938 5.414062 -9.78125 4.5625 -9.78125 L 2.453125 -9.78125 Z M 2.453125 -5.515625 "/></g></g></g><g fill="#ffffff" fill-opacity="1"><g transform="translate(50.987787, 16.350136)"><g><path d="M 1.15625 0 L 1.15625 -10.875 L 4.5 -10.875 C 6.414062 -10.875 7.828125 -10.382812 8.734375 -9.40625 C 9.640625 -8.4375 10.09375 -7.101562 10.09375 -5.40625 C 10.09375 -3.738281 9.640625 -2.421875 8.734375 -1.453125 C 7.828125 -0.484375 6.414062 0 4.5 0 Z M 2.453125 -1.09375 L 4.46875 -1.09375 C 5.519531 -1.09375 6.359375 -1.265625 6.984375 -1.609375 C 7.609375 -1.953125 8.054688 -2.445312 8.328125 -3.09375 C 8.597656 -3.75 8.734375 -4.519531 8.734375 -5.40625 C 8.734375 -6.320312 8.597656 -7.101562 8.328125 -7.75 C 8.054688 -8.40625 7.609375 -8.910156 6.984375 -9.265625 C 6.359375 -9.617188 5.519531 -9.796875 4.46875 -9.796875 L 2.453125 -9.796875 Z M 2.453125 -1.09375 "/></g></g></g><g fill="#ffffff" fill-opacity="1"><g transform="translate(64.21913, 16.350136)"><g><path d="M 1.15625 0 L 1.15625 -10.875 L 4.65625 -10.875 C 5.507812 -10.875 6.207031 -10.734375 6.75 -10.453125 C 7.289062 -10.179688 7.6875 -9.800781 7.9375 -9.3125 C 8.195312 -8.820312 8.328125 -8.285156 8.328125 -7.703125 C 8.328125 -7.015625 8.144531 -6.394531 7.78125 -5.84375 C 7.414062 -5.289062 6.84375 -4.898438 6.0625 -4.671875 L 8.4375 0 L 6.90625 0 L 4.6875 -4.5 L 2.453125 -4.5 L 2.453125 0 Z M 2.453125 -5.515625 L 4.578125 -5.515625 C 5.410156 -5.515625 6.019531 -5.71875 6.40625 -6.125 C 6.789062 -6.53125 6.984375 -7.050781 6.984375 -7.6875 C 6.984375 -8.320312 6.789062 -8.828125 6.40625 -9.203125 C 6.03125 -9.585938 5.414062 -9.78125 4.5625 -9.78125 L 2.453125 -9.78125 Z M 2.453125 -5.515625 "/></g></g></g><g fill="#ffffff" fill-opacity="1"><g transform="translate(75.849166, 16.350136)"><g><path d="M 6.09375 0.1875 C 5.03125 0.1875 4.09375 -0.046875 3.28125 -0.515625 C 2.476562 -0.992188 1.851562 -1.65625 1.40625 -2.5 C 0.957031 -3.351562 0.734375 -4.332031 0.734375 -5.4375 C 0.734375 -6.550781 0.957031 -7.53125 1.40625 -8.375 C 1.851562 -9.21875 2.476562 -9.875 3.28125 -10.34375 C 4.09375 -10.820312 5.03125 -11.0625 6.09375 -11.0625 C 7.175781 -11.0625 8.117188 -10.820312 8.921875 -10.34375 C 9.722656 -9.875 10.34375 -9.21875 10.78125 -8.375 C 11.226562 -7.53125 11.453125 -6.550781 11.453125 -5.4375 C 11.453125 -4.332031 11.226562 -3.351562 10.78125 -2.5 C 10.34375 -1.65625 9.722656 -0.992188 8.921875 -0.515625 C 8.117188 -0.046875 7.175781 0.1875 6.09375 0.1875 Z M 6.09375 -0.96875 C 6.894531 -0.96875 7.597656 -1.144531 8.203125 -1.5 C 8.804688 -1.851562 9.273438 -2.363281 9.609375 -3.03125 C 9.953125 -3.707031 10.125 -4.507812 10.125 -5.4375 C 10.125 -6.375 9.953125 -7.171875 9.609375 -7.828125 C 9.273438 -8.492188 8.804688 -9.003906 8.203125 -9.359375 C 7.597656 -9.722656 6.894531 -9.90625 6.09375 -9.90625 C 5.289062 -9.90625 4.585938 -9.722656 3.984375 -9.359375 C 3.378906 -9.003906 2.90625 -8.492188 2.5625 -7.828125 C 2.226562 -7.171875 2.0625 -6.375 2.0625 -5.4375 C 2.0625 -4.507812 2.226562 -3.707031 2.5625 -3.03125 C 2.90625 -2.363281 3.378906 -1.851562 3.984375 -1.5 C 4.585938 -1.144531 5.289062 -0.96875 6.09375 -0.96875 Z M 6.09375 -0.96875 "/></g></g></g><g fill="#ffffff" fill-opacity="1"><g transform="translate(90.448619, 16.350136)"><g><path d="M 6.09375 0.1875 C 5.03125 0.1875 4.09375 -0.046875 3.28125 -0.515625 C 2.476562 -0.992188 1.851562 -1.65625 1.40625 -2.5 C 0.957031 -3.351562 0.734375 -4.332031 0.734375 -5.4375 C 0.734375 -6.550781 0.957031 -7.53125 1.40625 -8.375 C 1.851562 -9.21875 2.476562 -9.875 3.28125 -10.34375 C 4.09375 -10.820312 5.03125 -11.0625 6.09375 -11.0625 C 7.175781 -11.0625 8.117188 -10.820312 8.921875 -10.34375 C 9.722656 -9.875 10.34375 -9.21875 10.78125 -8.375 C 11.226562 -7.53125 11.453125 -6.550781 11.453125 -5.4375 C 11.453125 -4.332031 11.226562 -3.351562 10.78125 -2.5 C 10.34375 -1.65625 9.722656 -0.992188 8.921875 -0.515625 C 8.117188 -0.046875 7.175781 0.1875 6.09375 0.1875 Z M 6.09375 -0.96875 C 6.894531 -0.96875 7.597656 -1.144531 8.203125 -1.5 C 8.804688 -1.851562 9.273438 -2.363281 9.609375 -3.03125 C 9.953125 -3.707031 10.125 -4.507812 10.125 -5.4375 C 10.125 -6.375 9.953125 -7.171875 9.609375 -7.828125 C 9.273438 -8.492188 8.804688 -9.003906 8.203125 -9.359375 C 7.597656 -9.722656 6.894531 -9.90625 6.09375 -9.90625 C 5.289062 -9.90625 4.585938 -9.722656 3.984375 -9.359375 C 3.378906 -9.003906 2.90625 -8.492188 2.5625 -7.828125 C 2.226562 -7.171875 2.0625 -6.375 2.0625 -5.4375 C 2.0625 -4.507812 2.226562 -3.707031 2.5625 -3.03125 C 2.90625 -2.363281 3.378906 -1.851562 3.984375 -1.5 C 4.585938 -1.144531 5.289062 -0.96875 6.09375 -0.96875 Z M 6.09375 -0.96875 "/></g></g></g><g fill="#ffffff" fill-opacity="1"><g transform="translate(105.048072, 16.350136)"><g><path d="M 1.15625 0 L 1.15625 -10.875 L 2.671875 -10.875 L 6.59375 -3.296875 L 10.484375 -10.875 L 12.015625 -10.875 L 12.015625 0 L 10.71875 0 L 10.71875 -8.546875 L 7.078125 -1.546875 L 6.09375 -1.546875 L 2.453125 -8.53125 L 2.453125 0 Z M 1.15625 0 "/></g></g></g></g></g></svg>